<?xml version="1.0" encoding="UTF-8" standalone="no"?>
<svg
   xmlns:dc="http://purl.org/dc/elements/1.1/"
   xmlns:cc="http://creativecommons.org/ns#"
   xmlns:rdf="http://www.w3.org/1999/02/22-rdf-syntax-ns#"
   xmlns:svg="http://www.w3.org/2000/svg"
   xmlns="http://www.w3.org/2000/svg"
   xmlns:sodipodi="http://sodipodi.sourceforge.net/DTD/sodipodi-0.dtd"
   xmlns:inkscape="http://www.inkscape.org/namespaces/inkscape"
   width="22.436029mm"
   height="1.8837562mm"
   viewBox="0 0 22.436029 1.8837562"
   version="1.1"
   id="svg8"
   inkscape:version="1.0.2 (e86c870879, 2021-01-15, custom)"
   sodipodi:docname="fr4_plate_frog_tkl_label.svg"
   inkscape:export-filename="/home/alvaro/Desktop/AcheronProject/frog_tkl_plate/fr4_plate_frog_tkl_label.png"
   inkscape:export-xdpi="5000"
   inkscape:export-ydpi="5000">
  <defs
     id="defs2">
    <rect
       x="112.32537"
       y="112.57383"
       width="1.158198"
       height="11.597299"
       id="rect847" />
    <rect
       x="-103.0477"
       y="37.979431"
       width="445.06003"
       height="30.748695"
       id="rect841" />
    <rect
       x="-58.617039"
       y="76.546959"
       width="418.48776"
       height="48.71175"
       id="rect835" />
    <rect
       x="-103.0477"
       y="37.979431"
       width="445.06003"
       height="30.748695"
       id="rect1848" />
    <rect
       x="-103.0477"
       y="37.979431"
       width="445.06003"
       height="30.748695"
       id="rect2162" />
  </defs>
  <sodipodi:namedview
     id="base"
     pagecolor="#ffffff"
     bordercolor="#666666"
     borderopacity="1.0"
     inkscape:pageopacity="0.0"
     inkscape:pageshadow="2"
     inkscape:zoom="1.979899"
     inkscape:cx="-18.563515"
     inkscape:cy="5.4096956"
     inkscape:document-units="mm"
     inkscape:current-layer="text2160"
     inkscape:document-rotation="0"
     showgrid="false"
     inkscape:window-width="1920"
     inkscape:window-height="1043"
     inkscape:window-x="1920"
     inkscape:window-y="294"
     inkscape:window-maximized="1" />
  <metadata
     id="metadata5">
    <rdf:RDF>
      <cc:Work
         rdf:about="">
        <dc:format>image/svg+xml</dc:format>
        <dc:type
           rdf:resource="http://purl.org/dc/dcmitype/StillImage" />
        <dc:title></dc:title>
      </cc:Work>
    </rdf:RDF>
  </metadata>
  <g
     inkscape:label="Layer 1"
     inkscape:groupmode="layer"
     id="layer1"
     transform="translate(105.95561,-73.957891)">
    <text
       xml:space="preserve"
       id="text833"
       style="font-style:normal;font-variant:normal;font-weight:bold;font-stretch:normal;font-size:10.5833px;line-height:1.25;font-family:'a Astro Space';-inkscape-font-specification:'a Astro Space Bold';letter-spacing:0px;word-spacing:0px;white-space:pre;shape-inside:url(#rect835);" />
    <text
       xml:space="preserve"
       id="text839"
       style="font-weight:600;font-size:10.5833px;line-height:1.25;font-family:'Open Sans';-inkscape-font-specification:'Open Sans Semi-Bold';letter-spacing:0px;word-spacing:0px;white-space:pre;shape-inside:url(#rect841);"
       transform="matrix(0.19645932,0,0,0.19645932,-82.245935,31.729783)"><tspan
         x="-103.04688"
         y="47.766001"><tspan
           style="font-style:normal;font-variant:normal;font-weight:bold;font-stretch:normal;font-family:'a Astro Space';-inkscape-font-specification:'a Astro Space Bold'">FROGTKL FR4 PLATES | DESIGNED BY GLARE AND GONDOLINDRIM</tspan></tspan></text>
    <text
       xml:space="preserve"
       id="text845"
       style="font-weight:600;font-size:10.5833px;line-height:1.25;font-family:'Open Sans';-inkscape-font-specification:'Open Sans Semi-Bold';letter-spacing:0px;word-spacing:0px;white-space:pre;shape-inside:url(#rect847);" />
    <g
       aria-label="FROGTKL FR4 PLATES | DESIGNED BY GLARE AND GONDOLINDRIM"
       transform="matrix(0.19645932,0,0,0.19645932,-82.245935,38.908424)"
       id="text1846"
       style="font-weight:600;font-size:10.5833px;line-height:1.25;font-family:'Open Sans';-inkscape-font-specification:'Open Sans Semi-Bold';letter-spacing:0px;word-spacing:0px;white-space:pre;shape-inside:url(#rect1848)">
      <g
         id="g1992"
         style="stroke:#000000;stroke-width:1.52703;stroke-linecap:round;stroke-linejoin:round;stroke-miterlimit:4;stroke-dasharray:none;stroke-opacity:1">
        <g
           id="g2060"
           transform="translate(13.009973)"
           style="stroke:none">
          <path
             d="m -100.77312,44.562072 v 3.203929 h -1.58129 v -6.469869 q 0,-0.702797 0.59944,-1.116207 0.40308,-0.268717 0.88883,-0.268717 h 4.888578 l -0.744138,1.364254 h -4.05142 v 1.922357 h 3.741363 v 1.364253 z"
             style="font-style:normal;font-variant:normal;font-weight:bold;font-stretch:normal;font-family:'a Astro Space';-inkscape-font-specification:'a Astro Space Bold';stroke:none;stroke-width:1.52703;stroke-linecap:round;stroke-linejoin:round;stroke-miterlimit:4;stroke-dasharray:none;stroke-opacity:1"
             id="path1850" />
          <path
             d="m -93.600453,41.275462 v 6.490539 h -1.581294 v -6.469869 c 0,-0.468531 0.199815,-0.8406 0.599445,-1.116207 0.268717,-0.179145 0.564994,-0.268717 0.888832,-0.268717 h 2.139397 c 0.957733,0 1.725987,0.285942 2.304762,0.857826 0.489202,0.489202 0.733803,1.092092 0.733803,1.808669 v 0.299723 c 0,0.895722 -0.354844,1.591629 -1.064532,2.087721 -0.268716,0.186035 -0.564993,0.327283 -0.888831,0.423745 l 2.129062,2.377109 h -1.974034 l -1.963698,-2.22208 h -2.326712 l 0.847491,-1.364253 h 2.202689 c 0.647676,0 1.085202,-0.223931 1.312577,-0.671792 0.08957,-0.186035 0.134359,-0.396185 0.134359,-0.63045 v -0.299723 c 0,-0.620115 -0.279052,-1.023189 -0.837156,-1.209224 -0.186035,-0.06201 -0.389295,-0.09302 -0.60978,-0.09302 z"
             style="font-style:normal;font-variant:normal;font-weight:bold;font-stretch:normal;font-family:'a Astro Space';-inkscape-font-specification:'a Astro Space Bold';stroke:none;stroke-width:1.52703;stroke-linecap:round;stroke-linejoin:round;stroke-miterlimit:4;stroke-dasharray:none;stroke-opacity:1"
             id="path1852"
             sodipodi:nodetypes="cccscsscsscccccccscssssc" />
          <path
             d="m -83.440899,47.869353 h -1.054196 q -1.281571,0 -2.180738,-0.909502 -0.857826,-0.868161 -0.857826,-2.077386 v -2.087721 q 0,-1.260901 0.909502,-2.139398 0.899167,-0.84749 2.129062,-0.84749 h 1.054196 q 1.281572,0 2.180739,0.909502 0.857826,0.868161 0.857826,2.077386 v 2.087721 q 0,1.260901 -0.909503,2.139397 -0.899167,0.847491 -2.129062,0.847491 z M -84.495095,46.5051 h 1.054196 q 0.713133,0 1.147213,-0.640786 0.299723,-0.444416 0.299723,-0.981849 v -2.087721 q 0,-0.816485 -0.58911,-1.302242 -0.382404,-0.320393 -0.857826,-0.320393 h -1.054196 q -0.713132,0 -1.147213,0.63045 -0.310057,0.444416 -0.310057,0.992185 v 2.087721 q 0,0.80615 0.578774,1.291907 0.403075,0.330728 0.878496,0.330728 z"
             style="font-style:normal;font-variant:normal;font-weight:bold;font-stretch:normal;font-family:'a Astro Space';-inkscape-font-specification:'a Astro Space Bold';stroke:none;stroke-width:1.52703;stroke-linecap:round;stroke-linejoin:round;stroke-miterlimit:4;stroke-dasharray:none;stroke-opacity:1"
             id="path1854" />
          <path
             d="m -76.464604,39.911208 h 1.054196 q 1.002519,0 1.943028,0.444416 0.392739,0.19637 0.620115,0.41341 l -1.374589,1.064531 q -0.361734,-0.465086 -1.00252,-0.547768 -0.103352,-0.01034 -0.186034,-0.01034 h -1.054196 q -0.702797,0 -1.136878,0.63045 -0.299722,0.444416 -0.299722,0.992184 v 1.881016 q 0,0.80615 0.578774,1.291907 0.403075,0.330728 0.878497,0.330728 h 2.036044 V 43.84894 h 1.59163 v 2.532137 q 0,0.702797 -0.599445,1.116207 -0.403075,0.268717 -0.888832,0.268717 h -2.139397 q -1.281572,0 -2.180739,-0.909503 -0.857826,-0.868161 -0.857826,-2.077386 v -1.881016 q 0,-1.271236 0.919838,-2.149732 0.878496,-0.837156 2.098056,-0.837156 z"
             style="font-style:normal;font-variant:normal;font-weight:bold;font-stretch:normal;font-family:'a Astro Space';-inkscape-font-specification:'a Astro Space Bold';stroke:none;stroke-width:1.52703;stroke-linecap:round;stroke-linejoin:round;stroke-miterlimit:4;stroke-dasharray:none;stroke-opacity:1"
             id="path1856" />
          <path
             d="m -68.134389,47.766001 h -1.591629 v -6.469869 c 0,-0.461641 0.199815,-0.830265 0.599444,-1.105872 0.268717,-0.186035 0.568439,-0.279052 0.899167,-0.279052 h 2.346103 v 1.364254 h -2.253085 z m -0.09302,-7.854793 -0.847491,1.364254 h -2.759512 v -1.364254 z"
             style="font-style:normal;font-variant:normal;font-weight:bold;font-stretch:normal;font-family:'a Astro Space';-inkscape-font-specification:'a Astro Space Bold';stroke:none;stroke-width:1.52703;stroke-linecap:round;stroke-linejoin:round;stroke-miterlimit:4;stroke-dasharray:none;stroke-opacity:1"
             id="path1858"
             sodipodi:nodetypes="ccscsccccccccc" />
          <path
             d="m -64.744427,39.911208 h 1.601965 v 3.286611 h 1.012855 l 2.005039,-3.286611 h 1.798334 l -2.490796,3.927396 2.604484,3.927397 h -1.80867 l -2.056715,-3.203929 h -1.064531 v 3.203929 h -1.601965 z"
             style="font-style:normal;font-variant:normal;font-weight:bold;font-stretch:normal;font-family:'a Astro Space';-inkscape-font-specification:'a Astro Space Bold';stroke:none;stroke-width:1.52703;stroke-linecap:round;stroke-linejoin:round;stroke-miterlimit:4;stroke-dasharray:none;stroke-opacity:1"
             id="path1860" />
          <path
             d="m -55.597725,46.401747 h 3.741362 l 0.733803,1.364254 h -4.568182 q -0.764809,0 -1.209225,-0.578774 -0.279051,-0.361734 -0.279051,-0.80615 v -6.469869 h 1.581293 z"
             style="font-style:normal;font-variant:normal;font-weight:bold;font-stretch:normal;font-family:'a Astro Space';-inkscape-font-specification:'a Astro Space Bold';stroke:none;stroke-width:1.52703;stroke-linecap:round;stroke-linejoin:round;stroke-miterlimit:4;stroke-dasharray:none;stroke-opacity:1"
             id="path1862" />
          <path
             d="m -45.7689,44.562072 v 3.203929 h -1.581294 v -6.469869 q 0,-0.702797 0.599445,-1.116207 0.403075,-0.268717 0.888832,-0.268717 h 4.888574 l -0.744138,1.364254 H -45.7689 v 1.922357 h 3.741362 v 1.364253 z"
             style="font-style:normal;font-variant:normal;font-weight:bold;font-stretch:normal;font-family:'a Astro Space';-inkscape-font-specification:'a Astro Space Bold';stroke:none;stroke-width:1.52703;stroke-linecap:round;stroke-linejoin:round;stroke-miterlimit:4;stroke-dasharray:none;stroke-opacity:1"
             id="path1864" />
          <path
             d="m -38.596236,41.275462 v 6.490539 h -1.581293 v -6.469869 c 0,-0.468531 0.199815,-0.8406 0.599444,-1.116207 0.268717,-0.179145 0.564994,-0.268717 0.888832,-0.268717 h 2.139398 c 0.957733,0 1.725987,0.285942 2.304761,0.857826 0.489202,0.489202 0.733803,1.092092 0.733803,1.808669 v 0.299723 c 0,0.895722 -0.354844,1.591629 -1.064531,2.087721 -0.268717,0.186035 -0.564994,0.327283 -0.888832,0.423745 l 2.129063,2.377109 h -1.974034 l -1.963698,-2.22208 h -2.724025 l 0.847491,-1.364253 h 2.600002 c 0.647676,0 1.085202,-0.223931 1.312577,-0.671792 0.08957,-0.186035 0.134358,-0.396185 0.134358,-0.63045 v -0.299723 c 0,-0.620115 -0.279052,-1.023189 -0.837155,-1.209224 -0.186035,-0.06201 -0.389295,-0.09302 -0.60978,-0.09302 z"
             style="font-style:normal;font-variant:normal;font-weight:bold;font-stretch:normal;font-family:'a Astro Space';-inkscape-font-specification:'a Astro Space Bold';stroke:none;stroke-width:1.52703;stroke-linecap:round;stroke-linejoin:round;stroke-miterlimit:4;stroke-dasharray:none;stroke-opacity:1"
             id="path1866"
             sodipodi:nodetypes="cccscsscsscccccccscssssc" />
          <path
             d="m -28.912104,39.911208 h 2.118727 v 5.446679 h 0.651121 l -0.651121,1.054196 v 1.353918 h -1.591629 V 46.72214 h -2.811189 q -1.02319,0 -1.188554,-0.847491 -0.03101,-0.144693 -0.03101,-0.299722 0.01033,-0.754474 0.527098,-1.477941 z m 0.527098,5.446679 v -3.65868 l -2.480461,3.65868 z"
             style="font-style:normal;font-variant:normal;font-weight:bold;font-stretch:normal;font-family:'a Astro Space';-inkscape-font-specification:'a Astro Space Bold';stroke:none;stroke-width:1.52703;stroke-linecap:round;stroke-linejoin:round;stroke-miterlimit:4;stroke-dasharray:none;stroke-opacity:1"
             id="path1868" />
          <path
             d="m -20.375185,41.275462 v 6.490539 h -1.581294 v -6.469869 c 0,-0.468531 0.199815,-0.8406 0.599445,-1.116207 0.268717,-0.179145 0.564994,-0.268717 0.888831,-0.268717 h 2.139398 c 0.957733,0 1.725987,0.285942 2.304761,0.857826 0.489202,0.489202 0.733803,1.092092 0.733803,1.808669 v 0.299723 c 0,0.888832 -0.354844,1.584739 -1.064531,2.087721 -0.551213,0.385849 -1.209224,0.578774 -1.974033,0.578774 h -2.921035 l 0.847491,-1.364253 h 2.073544 c 0.647676,0 1.085202,-0.223931 1.312577,-0.671792 0.08957,-0.186035 0.134358,-0.396185 0.134358,-0.63045 v -0.299723 c 0,-0.620115 -0.279052,-1.023189 -0.837155,-1.209224 -0.186035,-0.06201 -0.389295,-0.09302 -0.60978,-0.09302 z"
             style="font-style:normal;font-variant:normal;font-weight:bold;font-stretch:normal;font-family:'a Astro Space';-inkscape-font-specification:'a Astro Space Bold';stroke:none;stroke-width:1.52703;stroke-linecap:round;stroke-linejoin:round;stroke-miterlimit:4;stroke-dasharray:none;stroke-opacity:1"
             id="path1870"
             sodipodi:nodetypes="cccscsscsscsccscssssc" />
          <path
             d="m -12.582405,46.401747 h 3.741362 l 0.733803,1.364254 h -4.568182 q -0.764809,0 -1.209225,-0.578774 -0.279052,-0.361734 -0.279052,-0.80615 v -6.469869 h 1.581294 z"
             style="font-style:normal;font-variant:normal;font-weight:bold;font-stretch:normal;font-family:'a Astro Space';-inkscape-font-specification:'a Astro Space Bold';stroke:none;stroke-width:1.52703;stroke-linecap:round;stroke-linejoin:round;stroke-miterlimit:4;stroke-dasharray:none;stroke-opacity:1"
             id="path1872" />
          <path
             d="m -2.4848611,46.72214 h -4.3730788 l 0.8474908,-1.364253 h 3.0501663 l -1.343583,-3.85505 -2.1910737,6.263164 h -1.6949816 l 2.3047615,-6.573222 c 0.3376183,-0.916392 0.8647163,-1.378033 1.5812938,-1.384923 0.7165776,0.0069 1.2402305,0.468528 1.5709586,1.384923 l 2.31509678,6.573222 H -2.112792 Z"
             style="font-style:normal;font-variant:normal;font-weight:bold;font-stretch:normal;font-family:'a Astro Space';-inkscape-font-specification:'a Astro Space Bold';stroke:none;stroke-width:1.52703;stroke-linecap:round;stroke-linejoin:round;stroke-miterlimit:4;stroke-dasharray:none;stroke-opacity:1"
             id="path1874"
             sodipodi:nodetypes="ccccccccccccc" />
          <path
             d="m 2.7551142,47.766001 h -1.591629 v -6.469869 c 0,-0.461641 0.1998149,-0.830265 0.5994447,-1.105872 0.2687166,-0.186035 0.5684389,-0.279052 0.899167,-0.279052 h 2.3461026 v 1.364254 H 2.7551142 Z m 0.7134562,-7.854793 -0.8474907,1.364254 h -3.56598625 v -1.364254 z"
             style="font-style:normal;font-variant:normal;font-weight:bold;font-stretch:normal;font-family:'a Astro Space';-inkscape-font-specification:'a Astro Space Bold';stroke:none;stroke-width:1.52703;stroke-linecap:round;stroke-linejoin:round;stroke-miterlimit:4;stroke-dasharray:none;stroke-opacity:1"
             id="path1876"
             sodipodi:nodetypes="ccscsccccccccc" />
          <path
             d="m 7.5816809,44.562072 v 1.839675 H 11.6331 l 0.744139,1.364254 H 7.4886636 q -0.7544735,0 -1.2092246,-0.568439 -0.2893871,-0.372069 -0.2893871,-0.816485 v -5.084945 q 0,-0.692462 0.5994447,-1.105872 0.4030749,-0.279052 0.899167,-0.279052 H 12.377239 L 11.6331,41.275462 H 7.5816809 v 1.922357 h 3.7310261 v 1.364253 z"
             style="font-style:normal;font-variant:normal;font-weight:bold;font-stretch:normal;font-family:'a Astro Space';-inkscape-font-specification:'a Astro Space Bold';stroke:none;stroke-width:1.52703;stroke-linecap:round;stroke-linejoin:round;stroke-miterlimit:4;stroke-dasharray:none;stroke-opacity:1"
             id="path1878" />
          <path
             d="m 13.266066,42.153958 q 0,-0.950843 0.888832,-1.612299 0.857826,-0.630451 2.04638,-0.630451 h 1.054196 q 0.961179,0 1.860346,0.444416 0.372069,0.19637 0.599444,0.41341 l -1.384924,1.064531 q -0.341063,-0.475421 -0.930172,-0.547768 -0.07235,-0.01034 -0.144694,-0.01034 h -1.054196 q -0.775144,0 -1.167884,0.43408 -0.175699,0.21704 -0.175699,0.444416 0,0.403075 0.857826,0.692462 0.268717,0.09302 0.909503,0.258381 1.550288,0.403075 2.170403,0.78548 1.012855,0.620115 1.02319,1.63297 0,0.940508 -0.909502,1.601964 -0.899167,0.640786 -2.129063,0.640786 h -1.054196 q -1.002519,0 -1.943027,-0.444416 -0.39274,-0.19637 -0.620115,-0.41341 l 1.364253,-1.054196 q 0.361734,0.454751 1.012855,0.537433 0.103352,0.01033 0.186034,0.01033 h 1.054196 q 0.837156,0 1.260901,-0.444416 0.186035,-0.206705 0.186035,-0.43408 0,-0.454751 -0.857826,-0.754474 -0.124023,-0.05168 -1.498612,-0.423745 -1.581294,-0.423746 -2.149733,-1.02319 -0.454751,-0.496092 -0.454751,-1.167884 z"
             style="font-style:normal;font-variant:normal;font-weight:bold;font-stretch:normal;font-family:'a Astro Space';-inkscape-font-specification:'a Astro Space Bold';stroke:none;stroke-width:1.52703;stroke-linecap:round;stroke-linejoin:round;stroke-miterlimit:4;stroke-dasharray:none;stroke-opacity:1"
             id="path1880" />
        </g>
        <g
           id="g2024"
           transform="translate(-175.41203,14.763378)"
           style="stroke:none">
          <path
             d="m 34.80473,44.779112 v -1.881016 q 0,-0.816485 -0.589109,-1.302242 -0.382405,-0.320392 -0.857826,-0.320392 h -2.046381 v 5.126285 h 2.046381 q 0.713132,0 1.147213,-0.640785 0.299722,-0.444416 0.299722,-0.98185 z m -5.074609,-3.48298 q 0,-0.702797 0.599444,-1.116207 0.403075,-0.268717 0.888832,-0.268717 h 2.139398 q 1.281571,0 2.180738,0.909502 0.857826,0.868162 0.857826,2.077386 v 1.881016 q 0,1.260901 -0.909502,2.139398 -0.899167,0.847491 -2.129062,0.847491 h -3.627674 z"
             style="font-style:normal;font-variant:normal;font-weight:bold;font-stretch:normal;font-family:'a Astro Space';-inkscape-font-specification:'a Astro Space Bold';stroke:none;stroke-width:1.52703;stroke-linecap:round;stroke-linejoin:round;stroke-miterlimit:4;stroke-dasharray:none;stroke-opacity:1"
             id="path1884" />
          <path
             d="m 39.135201,44.562072 v 1.839675 h 4.05142 l 0.744138,1.364254 h -4.888575 q -0.754474,0 -1.209225,-0.568439 -0.289387,-0.372069 -0.289387,-0.816485 v -5.084945 q 0,-0.692462 0.599445,-1.105872 0.403075,-0.279052 0.899167,-0.279052 h 4.888575 l -0.744138,1.364254 h -4.05142 v 1.922357 h 3.731027 v 1.364253 z"
             style="font-style:normal;font-variant:normal;font-weight:bold;font-stretch:normal;font-family:'a Astro Space';-inkscape-font-specification:'a Astro Space Bold';stroke:none;stroke-width:1.52703;stroke-linecap:round;stroke-linejoin:round;stroke-miterlimit:4;stroke-dasharray:none;stroke-opacity:1"
             id="path1886" />
          <path
             d="m 44.819594,42.153958 q 0,-0.950843 0.888832,-1.612299 0.857826,-0.630451 2.04638,-0.630451 h 1.054196 q 0.961178,0 1.860345,0.444416 0.37207,0.19637 0.599445,0.41341 l -1.384924,1.064531 q -0.341063,-0.475421 -0.930173,-0.547768 -0.07235,-0.01034 -0.144693,-0.01034 h -1.054196 q -0.775144,0 -1.167884,0.43408 -0.175699,0.21704 -0.175699,0.444416 0,0.403075 0.857826,0.692462 0.268717,0.09302 0.909502,0.258381 1.550288,0.403075 2.170404,0.78548 1.012854,0.620115 1.02319,1.63297 0,0.940508 -0.909503,1.601964 -0.899167,0.640786 -2.129062,0.640786 h -1.054196 q -1.002519,0 -1.943027,-0.444416 -0.39274,-0.19637 -0.620116,-0.41341 l 1.364254,-1.054196 q 0.361734,0.454751 1.012855,0.537433 0.103352,0.01033 0.186034,0.01033 h 1.054196 q 0.837156,0 1.260901,-0.444416 0.186035,-0.206705 0.186035,-0.43408 0,-0.454751 -0.857826,-0.754474 -0.124023,-0.05168 -1.498612,-0.423745 -1.581294,-0.423746 -2.149733,-1.02319 -0.454751,-0.496092 -0.454751,-1.167884 z"
             style="font-style:normal;font-variant:normal;font-weight:bold;font-stretch:normal;font-family:'a Astro Space';-inkscape-font-specification:'a Astro Space Bold';stroke:none;stroke-width:1.52703;stroke-linecap:round;stroke-linejoin:round;stroke-miterlimit:4;stroke-dasharray:none;stroke-opacity:1"
             id="path1888" />
          <path
             d="m 52.684731,39.911208 h 1.581293 v 7.854793 h -1.581293 z"
             style="font-style:normal;font-variant:normal;font-weight:bold;font-stretch:normal;font-family:'a Astro Space';-inkscape-font-specification:'a Astro Space Bold';stroke:none;stroke-width:1.52703;stroke-linecap:round;stroke-linejoin:round;stroke-miterlimit:4;stroke-dasharray:none;stroke-opacity:1"
             id="path1890" />
          <path
             d="m 58.462127,39.911208 h 1.054196 q 1.00252,0 1.943028,0.444416 0.392739,0.19637 0.620115,0.41341 l -1.374589,1.064531 q -0.361734,-0.465086 -1.002519,-0.547768 -0.103353,-0.01034 -0.186035,-0.01034 h -1.054196 q -0.702797,0 -1.136878,0.63045 -0.299722,0.444416 -0.299722,0.992184 v 1.881016 q 0,0.80615 0.578774,1.291907 0.403075,0.330728 0.878497,0.330728 h 2.036045 V 43.84894 h 1.591629 v 2.532137 q 0,0.702797 -0.599445,1.116207 -0.403075,0.268717 -0.888832,0.268717 h -2.139397 q -1.281572,0 -2.180739,-0.909503 -0.857826,-0.868161 -0.857826,-2.077386 v -1.881016 q 0,-1.271236 0.919838,-2.149732 0.878496,-0.837156 2.098056,-0.837156 z"
             style="font-style:normal;font-variant:normal;font-weight:bold;font-stretch:normal;font-family:'a Astro Space';-inkscape-font-specification:'a Astro Space Bold';stroke:none;stroke-width:1.52703;stroke-linecap:round;stroke-linejoin:round;stroke-miterlimit:4;stroke-dasharray:none;stroke-opacity:1"
             id="path1892" />
          <path
             d="m 65.076694,39.859532 q 0.868161,0 1.405594,1.012855 0.08268,0.165364 0.175699,0.372069 l 2.201409,5.188297 v -6.521545 h 1.581294 v 6.521545 q 0,0.661456 -0.63045,1.085202 -0.444416,0.299722 -0.961179,0.299722 -0.868161,0 -1.405594,-1.012855 -0.08268,-0.165364 -0.1757,-0.372069 l -2.201409,-5.188297 v 6.521545 h -1.581293 v -6.521545 q 0,-0.661456 0.63045,-1.085202 0.444416,-0.299722 0.961179,-0.299722 z"
             style="font-style:normal;font-variant:normal;font-weight:bold;font-stretch:normal;font-family:'a Astro Space';-inkscape-font-specification:'a Astro Space Bold';stroke:none;stroke-width:1.52703;stroke-linecap:round;stroke-linejoin:round;stroke-miterlimit:4;stroke-dasharray:none;stroke-opacity:1"
             id="path1894" />
          <path
             d="m 73.427575,44.562072 v 1.839675 h 4.051419 l 0.744138,1.364254 h -4.888575 q -0.754473,0 -1.209224,-0.568439 -0.289387,-0.372069 -0.289387,-0.816485 v -5.084945 q 0,-0.692462 0.599444,-1.105872 0.403075,-0.279052 0.899167,-0.279052 h 4.888575 l -0.744138,1.364254 h -4.051419 v 1.922357 h 3.731026 v 1.364253 z"
             style="font-style:normal;font-variant:normal;font-weight:bold;font-stretch:normal;font-family:'a Astro Space';-inkscape-font-specification:'a Astro Space Bold';stroke:none;stroke-width:1.52703;stroke-linecap:round;stroke-linejoin:round;stroke-miterlimit:4;stroke-dasharray:none;stroke-opacity:1"
             id="path1896" />
          <path
             d="m 84.444958,44.779112 v -1.881016 q 0,-0.816485 -0.589109,-1.302242 -0.382404,-0.320392 -0.857826,-0.320392 h -2.04638 v 5.126285 h 2.04638 q 0.713132,0 1.147213,-0.640785 0.299722,-0.444416 0.299722,-0.98185 z m -5.074609,-3.48298 q 0,-0.702797 0.599445,-1.116207 0.403075,-0.268717 0.888831,-0.268717 h 2.139398 q 1.281571,0 2.180738,0.909502 0.857826,0.868162 0.857826,2.077386 v 1.881016 q 0,1.260901 -0.909502,2.139398 -0.899167,0.847491 -2.129062,0.847491 h -3.627674 z"
             style="font-style:normal;font-variant:normal;font-weight:bold;font-stretch:normal;font-family:'a Astro Space';-inkscape-font-specification:'a Astro Space Bold';stroke:none;stroke-width:1.52703;stroke-linecap:round;stroke-linejoin:round;stroke-miterlimit:4;stroke-dasharray:none;stroke-opacity:1"
             id="path1898" />
          <path
             d="m 95.844748,43.724917 c 0.668346,0.351399 1.061086,0.847491 1.178219,1.488276 0.02067,0.117133 0.03101,0.23082 0.03101,0.341063 0,0.647676 -0.279052,1.178219 -0.837156,1.59163 -0.551213,0.41341 -1.267791,0.620115 -2.149733,0.620115 H 90.43941 v -6.469869 c 0,-0.468531 0.199815,-0.8406 0.599445,-1.116207 0.268717,-0.179145 0.564994,-0.268717 0.888832,-0.268717 h 2.139397 c 0.964624,0 1.681202,0.316948 2.149733,0.950843 0.275607,0.365179 0.41341,0.775145 0.41341,1.229896 0,0.627005 -0.237711,1.150658 -0.713132,1.570958 -0.02756,0.02756 -0.05168,0.04823 -0.07235,0.06201 z m -4.210721,-0.60978 h 2.433057 c 0.461641,0 0.771699,-0.179145 0.930173,-0.537434 0.05512,-0.124023 0.08268,-0.251491 0.08268,-0.382404 0,-0.365179 -0.158474,-0.63045 -0.475422,-0.795814 -0.158473,-0.08268 -0.337618,-0.124023 -0.537433,-0.124023 h -2.04638 v 5.126285 h 2.04638 c 0.647676,0 1.088647,-0.182589 1.322913,-0.547768 0.07579,-0.130913 0.113687,-0.265272 0.113687,-0.403075 0,-0.330728 -0.182589,-0.589109 -0.547768,-0.775144 -0.248046,-0.124023 -0.544323,-0.186035 -0.888832,-0.186035 h -3.280547 z"
             style="font-style:normal;font-variant:normal;font-weight:bold;font-stretch:normal;font-family:'a Astro Space';-inkscape-font-specification:'a Astro Space Bold';stroke:none;stroke-width:1.52703;stroke-linecap:round;stroke-linejoin:round;stroke-miterlimit:4;stroke-dasharray:none;stroke-opacity:1"
             id="path1900"
             sodipodi:nodetypes="scscscscsscscsscscsssccscscscc" />
          <path
             d="m 101.41544,43.321842 2.19107,-3.410634 h 1.69498 l -2.31509,3.720691 q -0.41341,0.640786 -0.76481,0.899167 v 3.234935 h -1.59163 v -3.214264 q -0.40308,-0.289387 -0.795815,-0.919838 l -2.304762,-3.720691 h 1.694982 z"
             style="font-style:normal;font-variant:normal;font-weight:bold;font-stretch:normal;font-family:'a Astro Space';-inkscape-font-specification:'a Astro Space Bold';stroke:none;stroke-width:1.52703;stroke-linecap:round;stroke-linejoin:round;stroke-miterlimit:4;stroke-dasharray:none;stroke-opacity:1"
             id="path1902" />
          <path
             d="m 111.85405,39.911208 h 1.05419 q 1.00252,0 1.94303,0.444416 0.39274,0.19637 0.62012,0.41341 l -1.37459,1.064531 q -0.36173,-0.465086 -1.00252,-0.547768 -0.10335,-0.01034 -0.18604,-0.01034 h -1.05419 q -0.7028,0 -1.13688,0.63045 -0.29972,0.444416 -0.29972,0.992184 v 1.881016 q 0,0.80615 0.57877,1.291907 0.40308,0.330728 0.8785,0.330728 h 2.03604 V 43.84894 h 1.59163 v 2.532137 q 0,0.702797 -0.59944,1.116207 -0.40308,0.268717 -0.88883,0.268717 h -2.1394 q -1.28157,0 -2.18074,-0.909503 -0.85782,-0.868161 -0.85782,-2.077386 v -1.881016 q 0,-1.271236 0.91983,-2.149732 0.8785,-0.837156 2.09806,-0.837156 z"
             style="font-style:normal;font-variant:normal;font-weight:bold;font-stretch:normal;font-family:'a Astro Space';-inkscape-font-specification:'a Astro Space Bold';stroke:none;stroke-width:1.52703;stroke-linecap:round;stroke-linejoin:round;stroke-miterlimit:4;stroke-dasharray:none;stroke-opacity:1"
             id="path1904" />
          <path
             d="m 118.47895,46.401747 h 3.74136 l 0.73381,1.364254 h -4.56819 q -0.76481,0 -1.20922,-0.578774 -0.27905,-0.361734 -0.27905,-0.80615 v -6.469869 h 1.58129 z"
             style="font-style:normal;font-variant:normal;font-weight:bold;font-stretch:normal;font-family:'a Astro Space';-inkscape-font-specification:'a Astro Space Bold';stroke:none;stroke-width:1.52703;stroke-linecap:round;stroke-linejoin:round;stroke-miterlimit:4;stroke-dasharray:none;stroke-opacity:1"
             id="path1906" />
          <path
             d="m 128.57649,46.72214 h -4.70759 l 0.84749,-1.364253 h 3.38468 l -1.34358,-3.85505 -2.19107,6.263164 h -1.69499 l 2.30477,-6.573222 c 0.33761,-0.916392 0.86471,-1.378033 1.58129,-1.384923 0.71658,0.0069 1.24023,0.468528 1.57096,1.384923 l 2.3151,6.573222 h -1.69499 z"
             style="font-style:normal;font-variant:normal;font-weight:bold;font-stretch:normal;font-family:'a Astro Space';-inkscape-font-specification:'a Astro Space Bold';stroke:none;stroke-width:1.52703;stroke-linecap:round;stroke-linejoin:round;stroke-miterlimit:4;stroke-dasharray:none;stroke-opacity:1"
             id="path1908"
             sodipodi:nodetypes="ccccccccccccc" />
          <path
             d="m 133.10333,41.275462 v 6.490539 h -1.58129 v -6.469869 c 0,-0.468531 0.19981,-0.8406 0.59944,-1.116207 0.26872,-0.179145 0.565,-0.268717 0.88883,-0.268717 h 2.1394 c 0.95773,0 1.72599,0.285942 2.30476,0.857826 0.48921,0.489202 0.73381,1.092092 0.73381,1.808669 v 0.299723 c 0,0.895722 -0.35485,1.591629 -1.06454,2.087721 -0.26871,0.186035 -0.56499,0.327283 -0.88883,0.423745 l 2.12906,2.377109 h -1.97403 l -1.9637,-2.22208 h -2.48552 l 0.84749,-1.364253 h 2.3615 c 0.64767,0 1.0852,-0.223931 1.31258,-0.671792 0.0896,-0.186035 0.13436,-0.396185 0.13436,-0.63045 v -0.299723 c 0,-0.620115 -0.27905,-1.023189 -0.83716,-1.209224 -0.18603,-0.06201 -0.38929,-0.09302 -0.60978,-0.09302 z"
             style="font-style:normal;font-variant:normal;font-weight:bold;font-stretch:normal;font-family:'a Astro Space';-inkscape-font-specification:'a Astro Space Bold';stroke:none;stroke-width:1.52703;stroke-linecap:round;stroke-linejoin:round;stroke-miterlimit:4;stroke-dasharray:none;stroke-opacity:1"
             id="path1910"
             sodipodi:nodetypes="cccscsscsscccccccscssssc" />
          <path
             d="m 140.99947,44.562072 v 1.839675 h 4.05142 l 0.74414,1.364254 h -4.88857 q -0.75448,0 -1.20923,-0.568439 -0.28938,-0.372069 -0.28938,-0.816485 v -5.084945 q 0,-0.692462 0.59944,-1.105872 0.40307,-0.279052 0.89917,-0.279052 h 4.88857 l -0.74414,1.364254 h -4.05142 v 1.922357 h 3.73103 v 1.364253 z"
             style="font-style:normal;font-variant:normal;font-weight:bold;font-stretch:normal;font-family:'a Astro Space';-inkscape-font-specification:'a Astro Space Bold';stroke:none;stroke-width:1.52703;stroke-linecap:round;stroke-linejoin:round;stroke-miterlimit:4;stroke-dasharray:none;stroke-opacity:1"
             id="path1912" />
          <path
             d="m 155.13809,46.72214 h -4.35999 l 0.8475,-1.364253 h 3.03707 l -1.34358,-3.85505 -2.19107,6.263164 h -1.69499 l 2.30477,-6.573222 c 0.33761,-0.916392 0.86471,-1.378033 1.58129,-1.384923 0.71658,0.0069 1.24023,0.468528 1.57096,1.384923 l 2.31509,6.573222 h -1.69498 z"
             style="font-style:normal;font-variant:normal;font-weight:bold;font-stretch:normal;font-family:'a Astro Space';-inkscape-font-specification:'a Astro Space Bold';stroke:none;stroke-width:1.52703;stroke-linecap:round;stroke-linejoin:round;stroke-miterlimit:4;stroke-dasharray:none;stroke-opacity:1"
             id="path1914"
             sodipodi:nodetypes="ccccccccccccc" />
          <path
             d="m 159.67527,39.859532 q 0.86816,0 1.40559,1.012855 0.0827,0.165364 0.1757,0.372069 l 2.20141,5.188297 v -6.521545 h 1.58129 v 6.521545 q 0,0.661456 -0.63045,1.085202 -0.44441,0.299722 -0.96118,0.299722 -0.86816,0 -1.40559,-1.012855 -0.0827,-0.165364 -0.1757,-0.372069 l -2.20141,-5.188297 v 6.521545 h -1.58129 v -6.521545 q 0,-0.661456 0.63045,-1.085202 0.44441,-0.299722 0.96118,-0.299722 z"
             style="font-style:normal;font-variant:normal;font-weight:bold;font-stretch:normal;font-family:'a Astro Space';-inkscape-font-specification:'a Astro Space Bold';stroke:none;stroke-width:1.52703;stroke-linecap:round;stroke-linejoin:round;stroke-miterlimit:4;stroke-dasharray:none;stroke-opacity:1"
             id="path1916" />
          <path
             d="m 171.59181,44.779112 v -1.881016 q 0,-0.816485 -0.58911,-1.302242 -0.3824,-0.320392 -0.85783,-0.320392 h -2.04638 v 5.126285 h 2.04638 q 0.71314,0 1.14722,-0.640785 0.29972,-0.444416 0.29972,-0.98185 z m -5.07461,-3.48298 q 0,-0.702797 0.59944,-1.116207 0.40308,-0.268717 0.88884,-0.268717 h 2.13939 q 1.28157,0 2.18074,0.909502 0.85783,0.868162 0.85783,2.077386 v 1.881016 q 0,1.260901 -0.9095,2.139398 -0.89917,0.847491 -2.12907,0.847491 h -3.62767 z"
             style="font-style:normal;font-variant:normal;font-weight:bold;font-stretch:normal;font-family:'a Astro Space';-inkscape-font-specification:'a Astro Space Bold';stroke:none;stroke-width:1.52703;stroke-linecap:round;stroke-linejoin:round;stroke-miterlimit:4;stroke-dasharray:none;stroke-opacity:1"
             id="path1918" />
          <path
             d="m 180.26309,39.911208 h 1.0542 q 1.00252,0 1.94303,0.444416 0.39273,0.19637 0.62011,0.41341 l -1.37459,1.064531 q -0.36173,-0.465086 -1.00252,-0.547768 -0.10335,-0.01034 -0.18603,-0.01034 h -1.0542 q -0.7028,0 -1.13688,0.63045 -0.29972,0.444416 -0.29972,0.992184 v 1.881016 q 0,0.80615 0.57878,1.291907 0.40307,0.330728 0.87849,0.330728 h 2.03605 V 43.84894 h 1.59163 v 2.532137 q 0,0.702797 -0.59945,1.116207 -0.40307,0.268717 -0.88883,0.268717 h -2.1394 q -1.28157,0 -2.18074,-0.909503 -0.85782,-0.868161 -0.85782,-2.077386 v -1.881016 q 0,-1.271236 0.91984,-2.149732 0.87849,-0.837156 2.09805,-0.837156 z"
             style="font-style:normal;font-variant:normal;font-weight:bold;font-stretch:normal;font-family:'a Astro Space';-inkscape-font-specification:'a Astro Space Bold';stroke:none;stroke-width:1.52703;stroke-linecap:round;stroke-linejoin:round;stroke-miterlimit:4;stroke-dasharray:none;stroke-opacity:1"
             id="path1920" />
          <path
             d="m 189.0584,47.869353 h -1.0542 q -1.28157,0 -2.18074,-0.909502 -0.85782,-0.868161 -0.85782,-2.077386 v -2.087721 q 0,-1.260901 0.9095,-2.139398 0.89917,-0.84749 2.12906,-0.84749 h 1.0542 q 1.28157,0 2.18073,0.909502 0.85783,0.868161 0.85783,2.077386 v 2.087721 q 0,1.260901 -0.9095,2.139397 -0.89917,0.847491 -2.12906,0.847491 z M 188.0042,46.5051 h 1.0542 q 0.71313,0 1.14721,-0.640786 0.29972,-0.444416 0.29972,-0.981849 v -2.087721 q 0,-0.816485 -0.58911,-1.302242 -0.3824,-0.320393 -0.85782,-0.320393 h -1.0542 q -0.71313,0 -1.14721,0.63045 -0.31006,0.444416 -0.31006,0.992185 v 2.087721 q 0,0.80615 0.57877,1.291907 0.40308,0.330728 0.8785,0.330728 z"
             style="font-style:normal;font-variant:normal;font-weight:bold;font-stretch:normal;font-family:'a Astro Space';-inkscape-font-specification:'a Astro Space Bold';stroke:none;stroke-width:1.52703;stroke-linecap:round;stroke-linejoin:round;stroke-miterlimit:4;stroke-dasharray:none;stroke-opacity:1"
             id="path1922" />
          <path
             d="m 194.9495,39.859532 q 0.86816,0 1.40559,1.012855 0.0827,0.165364 0.1757,0.372069 l 2.20141,5.188297 v -6.521545 h 1.58129 v 6.521545 q 0,0.661456 -0.63045,1.085202 -0.44441,0.299722 -0.96118,0.299722 -0.86816,0 -1.40559,-1.012855 -0.0827,-0.165364 -0.1757,-0.372069 l -2.20141,-5.188297 v 6.521545 h -1.58129 v -6.521545 q 0,-0.661456 0.63045,-1.085202 0.44441,-0.299722 0.96118,-0.299722 z"
             style="font-style:normal;font-variant:normal;font-weight:bold;font-stretch:normal;font-family:'a Astro Space';-inkscape-font-specification:'a Astro Space Bold';stroke:none;stroke-width:1.52703;stroke-linecap:round;stroke-linejoin:round;stroke-miterlimit:4;stroke-dasharray:none;stroke-opacity:1"
             id="path1924" />
          <path
             d="m 206.86604,44.779112 v -1.881016 q 0,-0.816485 -0.58911,-1.302242 -0.3824,-0.320392 -0.85783,-0.320392 h -2.04638 v 5.126285 h 2.04638 q 0.71314,0 1.14722,-0.640785 0.29972,-0.444416 0.29972,-0.98185 z m -5.07461,-3.48298 q 0,-0.702797 0.59945,-1.116207 0.40307,-0.268717 0.88883,-0.268717 h 2.13939 q 1.28158,0 2.18074,0.909502 0.85783,0.868162 0.85783,2.077386 v 1.881016 q 0,1.260901 -0.9095,2.139398 -0.89917,0.847491 -2.12907,0.847491 h -3.62767 z"
             style="font-style:normal;font-variant:normal;font-weight:bold;font-stretch:normal;font-family:'a Astro Space';-inkscape-font-specification:'a Astro Space Bold';stroke:none;stroke-width:1.52703;stroke-linecap:round;stroke-linejoin:round;stroke-miterlimit:4;stroke-dasharray:none;stroke-opacity:1"
             id="path1926" />
          <path
             d="m 213.45992,47.869353 h -1.0542 q -1.28157,0 -2.18074,-0.909502 -0.85782,-0.868161 -0.85782,-2.077386 v -2.087721 q 0,-1.260901 0.9095,-2.139398 0.89917,-0.84749 2.12906,-0.84749 h 1.0542 q 1.28157,0 2.18073,0.909502 0.85783,0.868161 0.85783,2.077386 v 2.087721 q 0,1.260901 -0.9095,2.139397 -0.89917,0.847491 -2.12906,0.847491 z m -1.0542,-1.364253 h 1.0542 q 0.71313,0 1.14721,-0.640786 0.29972,-0.444416 0.29972,-0.981849 v -2.087721 q 0,-0.816485 -0.58911,-1.302242 -0.3824,-0.320393 -0.85782,-0.320393 h -1.0542 q -0.71313,0 -1.14721,0.63045 -0.31006,0.444416 -0.31006,0.992185 v 2.087721 q 0,0.80615 0.57877,1.291907 0.40308,0.330728 0.8785,0.330728 z"
             style="font-style:normal;font-variant:normal;font-weight:bold;font-stretch:normal;font-family:'a Astro Space';-inkscape-font-specification:'a Astro Space Bold';stroke:none;stroke-width:1.52703;stroke-linecap:round;stroke-linejoin:round;stroke-miterlimit:4;stroke-dasharray:none;stroke-opacity:1"
             id="path1928" />
          <path
             d="m 219.36135,46.401747 h 3.74136 l 0.73381,1.364254 h -4.56819 q -0.7648,0 -1.20922,-0.578774 -0.27905,-0.361734 -0.27905,-0.80615 v -6.469869 h 1.58129 z"
             style="font-style:normal;font-variant:normal;font-weight:bold;font-stretch:normal;font-family:'a Astro Space';-inkscape-font-specification:'a Astro Space Bold';stroke:none;stroke-width:1.52703;stroke-linecap:round;stroke-linejoin:round;stroke-miterlimit:4;stroke-dasharray:none;stroke-opacity:1"
             id="path1930" />
          <path
             d="m 224.50831,39.911208 h 1.58129 v 7.854793 h -1.58129 z"
             style="font-style:normal;font-variant:normal;font-weight:bold;font-stretch:normal;font-family:'a Astro Space';-inkscape-font-specification:'a Astro Space Bold';stroke:none;stroke-width:1.52703;stroke-linecap:round;stroke-linejoin:round;stroke-miterlimit:4;stroke-dasharray:none;stroke-opacity:1"
             id="path1932" />
          <path
             d="m 229.20053,39.859532 q 0.86817,0 1.4056,1.012855 0.0827,0.165364 0.1757,0.372069 l 2.20141,5.188297 v -6.521545 h 1.58129 v 6.521545 q 0,0.661456 -0.63045,1.085202 -0.44442,0.299722 -0.96118,0.299722 -0.86816,0 -1.40559,-1.012855 -0.0827,-0.165364 -0.1757,-0.372069 l -2.20141,-5.188297 v 6.521545 h -1.5813 v -6.521545 q 0,-0.661456 0.63046,-1.085202 0.44441,-0.299722 0.96117,-0.299722 z"
             style="font-style:normal;font-variant:normal;font-weight:bold;font-stretch:normal;font-family:'a Astro Space';-inkscape-font-specification:'a Astro Space Bold';stroke:none;stroke-width:1.52703;stroke-linecap:round;stroke-linejoin:round;stroke-miterlimit:4;stroke-dasharray:none;stroke-opacity:1"
             id="path1934" />
          <path
             d="m 241.11708,44.779112 v -1.881016 q 0,-0.816485 -0.58911,-1.302242 -0.38241,-0.320392 -0.85783,-0.320392 h -2.04638 v 5.126285 h 2.04638 q 0.71313,0 1.14722,-0.640785 0.29972,-0.444416 0.29972,-0.98185 z m -5.07461,-3.48298 q 0,-0.702797 0.59944,-1.116207 0.40308,-0.268717 0.88883,-0.268717 h 2.1394 q 1.28157,0 2.18074,0.909502 0.85783,0.868162 0.85783,2.077386 v 1.881016 q 0,1.260901 -0.90951,2.139398 -0.89916,0.847491 -2.12906,0.847491 h -3.62767 z"
             style="font-style:normal;font-variant:normal;font-weight:bold;font-stretch:normal;font-family:'a Astro Space';-inkscape-font-specification:'a Astro Space Bold';stroke:none;stroke-width:1.52703;stroke-linecap:round;stroke-linejoin:round;stroke-miterlimit:4;stroke-dasharray:none;stroke-opacity:1"
             id="path1936" />
          <path
             d="m 245.51988,41.275462 v 6.490539 h -1.58129 v -6.469869 c 0,-0.468531 0.19981,-0.8406 0.59944,-1.116207 0.26872,-0.179145 0.565,-0.268717 0.88883,-0.268717 h 2.1394 c 0.95773,0 1.72599,0.285942 2.30476,0.857826 0.4892,0.489202 0.7338,1.092092 0.7338,1.808669 v 0.299723 c 0,0.895722 -0.35484,1.591629 -1.06453,2.087721 -0.26871,0.186035 -0.56499,0.327283 -0.88883,0.423745 l 2.12906,2.377109 h -1.97403 l -1.9637,-2.22208 h -2.53093 l 0.84749,-1.364253 h 2.40691 c 0.64767,0 1.0852,-0.223931 1.31258,-0.671792 0.0896,-0.186035 0.13436,-0.396185 0.13436,-0.63045 v -0.299723 c 0,-0.620115 -0.27905,-1.023189 -0.83716,-1.209224 -0.18603,-0.06201 -0.38929,-0.09302 -0.60978,-0.09302 z"
             style="font-style:normal;font-variant:normal;font-weight:bold;font-stretch:normal;font-family:'a Astro Space';-inkscape-font-specification:'a Astro Space Bold';stroke:none;stroke-width:1.52703;stroke-linecap:round;stroke-linejoin:round;stroke-miterlimit:4;stroke-dasharray:none;stroke-opacity:1"
             id="path1938"
             sodipodi:nodetypes="cccscsscsscccccccscssssc" />
          <path
             d="m 251.97941,39.911208 h 1.58129 v 7.854793 h -1.58129 z"
             style="font-style:normal;font-variant:normal;font-weight:bold;font-stretch:normal;font-family:'a Astro Space';-inkscape-font-specification:'a Astro Space Bold';stroke:none;stroke-width:1.52703;stroke-linecap:round;stroke-linejoin:round;stroke-miterlimit:4;stroke-dasharray:none;stroke-opacity:1"
             id="path1940" />
          <path
             d="m 262.28368,41.533843 -1.757,5.084945 h -1.67431 l -1.75699,-5.084945 -0.59945,6.232158 h -1.69498 l 0.72347,-6.542216 q 0.10335,-0.878496 0.82682,-1.229895 0.29972,-0.134358 0.63045,-0.134358 0.71313,0 1.0852,0.547768 0.093,0.134359 0.15503,0.289387 l 1.46761,4.299466 1.4676,-4.299466 q 0.23771,-0.640785 0.91984,-0.795814 0.16537,-0.04134 0.32039,-0.04134 0.74414,0 1.16789,0.578774 0.23771,0.341063 0.28938,0.785479 l 0.72347,6.542216 h -1.69498 z"
             style="font-style:normal;font-variant:normal;font-weight:bold;font-stretch:normal;font-family:'a Astro Space';-inkscape-font-specification:'a Astro Space Bold';stroke:none;stroke-width:1.52703;stroke-linecap:round;stroke-linejoin:round;stroke-miterlimit:4;stroke-dasharray:none;stroke-opacity:1"
             id="path1942" />
        </g>
      </g>
    </g>
    <g
       aria-label="I love frog daddy"
       transform="matrix(0.19645932,0,0,0.19645932,-85.711347,66.287267)"
       id="text2160"
       style="font-weight:600;font-size:10.5833px;line-height:1.25;font-family:'Open Sans';-inkscape-font-specification:'Open Sans Semi-Bold';letter-spacing:0px;word-spacing:0px;white-space:pre;shape-inside:url(#rect2162)" />
  </g>
</svg>
